<?xml version="1.0" encoding="UTF-8" standalone="no"?><!DOCTYPE svg PUBLIC "-//W3C//DTD SVG 1.1//EN" "http://www.w3.org/Graphics/SVG/1.1/DTD/svg11.dtd"><svg width="100%" height="100%" viewBox="0 0 2642 512" version="1.1" xmlns="http://www.w3.org/2000/svg" xmlns:xlink="http://www.w3.org/1999/xlink" xml:space="preserve" xmlns:serif="http://www.serif.com/" style="fill-rule:evenodd;clip-rule:evenodd;stroke-linejoin:round;stroke-miterlimit:2;"><rect id="szpont-logo" x="0" y="0" width="2641.797" height="512" style="fill:none;"/><clipPath id="_clip1"><rect id="szpont-logo1" serif:id="szpont-logo" x="0" y="0" width="2641.797" height="512"/></clipPath><g clip-path="url(#_clip1)"><g><path d="M168.309,401.208l2.357,-23.808l0,-44.081c-42.274,-2.2 -73.861,-7.975 -94.762,-17.326c-20.901,-9.351 -36.302,-21.098 -46.203,-35.241c-5.972,-8.329 -10.568,-17.64 -13.79,-27.934c-3.222,-10.293 -8.525,-18.033 -15.912,-23.219l3.536,-4.95c7.072,4.715 14.733,7.072 22.983,7.072c8.25,0 18.819,-0.314 31.705,-0.943c12.886,-0.629 27.423,-1.375 43.61,-2.239c16.187,-0.864 27.737,-1.454 34.652,-1.768c6.915,-0.314 12.022,-1.297 15.322,-2.947c3.3,-1.65 5.657,-4.675 7.072,-9.076l10.608,3.536c-0.471,1.257 -0.707,2.907 -0.707,4.95c0,5.186 4.322,11.079 12.965,17.68c8.643,6.6 24.28,9.901 46.91,9.901c15.244,0 26.087,-2.593 32.53,-7.779c2.829,-2.357 4.243,-5.186 4.243,-8.486c0,-7.7 -4.243,-12.808 -12.729,-15.322c-8.486,-2.514 -18.74,-4.675 -30.762,-6.483c-12.022,-1.807 -24.044,-3.261 -36.066,-4.361c-12.022,-1.1 -25.026,-2.672 -39.013,-4.715c-13.986,-2.043 -27.187,-4.282 -39.602,-6.718c-12.415,-2.436 -24.476,-6.011 -36.184,-10.726c-11.708,-4.715 -21.726,-10.254 -30.055,-16.619c-8.329,-6.365 -15.047,-14.537 -20.155,-24.516c-5.107,-9.979 -7.661,-21.333 -7.661,-34.063c0,-12.729 2.004,-24.359 6.011,-34.888c4.007,-10.529 9.468,-19.565 16.383,-27.109c6.915,-7.543 15.283,-14.222 25.105,-20.037c9.822,-5.815 20.115,-10.529 30.88,-14.144c10.765,-3.614 22.512,-6.522 35.241,-8.722c22.158,-4.086 43.06,-6.129 62.703,-6.129c19.644,0 34.613,0.275 44.906,0.825c10.293,0.55 22.394,1.572 36.302,3.064c13.908,1.493 26.48,3.929 37.716,7.308c11.236,3.379 22.355,7.661 33.355,12.847c22.944,10.686 39.052,27.266 48.324,49.738c3.772,8.015 8.958,15.479 15.558,22.394l-3.064,5.422c-6.6,-4.557 -14.222,-6.836 -22.866,-6.836l-3.064,0c-12.572,0.471 -30.527,1.375 -53.864,2.711c-23.337,1.336 -38.345,2.161 -45.024,2.475c-6.679,0.314 -11.472,1.257 -14.379,2.829c-2.907,1.572 -4.99,4.557 -6.247,8.958l-10.372,-2.829c0.471,-1.414 0.707,-2.907 0.707,-4.479c0,-6.6 -5.343,-12.297 -16.029,-17.09c-10.686,-4.793 -22.787,-7.19 -36.302,-7.19c-26.401,0 -39.602,5.186 -39.602,15.558c0,9.272 19.801,16.029 59.403,20.273c9.272,1.1 19.801,2.2 31.587,3.3c41.017,4.243 72.447,9.822 94.291,16.737c45.888,14.458 68.832,42.038 68.832,82.74c0,16.658 -3.457,31.627 -10.372,44.906c-6.915,13.279 -15.912,24.083 -26.991,32.413c-11.079,8.329 -24.162,15.244 -39.249,20.744c-27.187,9.901 -58.225,14.851 -93.112,14.851c-9.429,0 -15.008,-0.079 -16.737,-0.236c-8.486,0 -12.729,6.522 -12.729,19.565l0,5.657c0,4.243 1.061,10.49 3.182,18.74c2.122,8.25 3.182,14.419 3.182,18.505c0,8.329 -2.907,12.494 -8.722,12.494c-2.986,0 -5.304,-1.257 -6.954,-3.772c-1.65,-2.514 -2.475,-5.657 -2.475,-9.429c0,-3.772 0.982,-10.176 2.947,-19.212c1.964,-9.036 2.947,-15.597 2.947,-19.683c0,-4.086 -0.039,-6.954 -0.118,-8.604c-0.079,-1.65 -0.314,-3.693 -0.707,-6.129c-0.393,-2.436 -1.061,-4.204 -2.004,-5.304c-2.2,-2.829 -5.972,-4.243 -11.315,-4.243c-9.743,0 -14.615,8.486 -14.615,25.459l1.414,38.659c0,10.372 -1.493,15.558 -4.479,15.558c-2.986,0 -4.479,-2.829 -4.479,-8.486Z" style="fill:#cf0;fill-rule:nonzero;"/><path d="M814.438,470.512l6.129,-106.077c-1.886,-9.586 -8.525,-18.112 -19.919,-25.576c-11.393,-7.465 -22.276,-11.197 -32.648,-11.197c-16.972,0 -25.459,14.537 -25.459,43.61l1.179,38.424c0,5.186 1.021,12.847 3.064,22.983c2.043,10.136 3.064,18.19 3.064,24.162c0,13.358 -4.282,20.037 -12.847,20.037c-8.565,0 -12.847,-6.286 -12.847,-18.858c0,-4.557 1.611,-12.297 4.832,-23.219c3.222,-10.922 4.832,-17.876 4.832,-20.862l0,-24.044c0,-38.345 -7.779,-57.517 -23.337,-57.517l-209.09,0c-11.786,0 -19.644,2.043 -23.573,6.129c-3.929,4.086 -5.893,10.451 -5.893,19.094l3.772,130.829c0,7.386 -1.297,13.161 -3.89,17.326c-2.593,4.165 -5.697,6.247 -9.311,6.247c-3.614,0 -6.64,-2.043 -9.076,-6.129c-2.436,-4.086 -3.654,-11.04 -3.654,-20.862c0,-9.822 1.689,-30.212 5.068,-61.171c3.379,-30.959 5.068,-52.489 5.068,-64.589l-0.471,-45.967l0,-30.645c0,-5.029 -0.707,-8.997 -2.122,-11.904c-1.414,-2.907 -4.165,-5.304 -8.25,-7.19l3.536,-8.015c3.614,1.414 6.875,2.082 9.783,2.004c2.907,-0.079 6.718,-2.161 11.433,-6.247l165.009,-141.908c7.543,-6.286 15.558,-11.001 24.044,-14.144l-1.179,-3.3c-8.958,3.3 -18.151,4.95 -27.58,4.95l-139.551,0c-9.429,0 -17.287,3.143 -23.573,9.429l-4.715,-4.95c6.129,-6.129 9.193,-13.986 9.193,-23.573l0,-40.309c0,-9.586 -3.064,-17.444 -9.193,-23.573l4.715,-4.95c6.286,6.286 14.144,9.429 23.573,9.429l324.597,0c9.272,0 17.051,-3.143 23.337,-9.429l4.95,4.95c-6.129,6.129 -9.193,13.986 -9.193,23.573l0,36.538c0,5.029 0.707,8.997 2.122,11.904c1.414,2.907 4.165,5.382 8.25,7.425l-3.536,7.779c-3.614,-1.414 -6.797,-2.122 -9.547,-2.122c-2.75,0 -6.797,2.122 -12.14,6.365l-159.352,133.893c-6.758,5.657 -14.772,10.215 -24.044,13.672l0.943,3.3c8.958,-3.3 18.072,-4.95 27.344,-4.95l143.794,0c9.743,0 17.601,-2.986 23.573,-8.958l4.479,4.715c-5.972,5.972 -8.958,13.751 -8.958,23.337l0,92.641c0,9.901 2.357,27.58 7.072,53.039c4.715,25.459 7.072,42.785 7.072,51.978c0,9.193 -1.454,15.99 -4.361,20.39c-2.907,4.4 -6.443,6.6 -10.608,6.6c-4.165,0 -7.858,-2.2 -11.079,-6.6c-3.222,-4.4 -4.832,-10.372 -4.832,-17.915Z" style="fill:#cf0;fill-rule:nonzero;"/><path d="M915.33,361.134l-0.471,-47.853l0,-276.744c0,-9.586 -2.986,-17.365 -8.958,-23.337l4.715,-4.715c5.972,5.972 13.751,8.958 23.337,8.958l203.433,0c32.53,0 54.571,0.943 66.122,2.829c11.551,1.886 21.648,3.968 30.291,6.247c8.643,2.279 15.872,4.99 21.687,8.133c5.815,3.143 11.786,7.15 17.915,12.022c6.129,4.872 11.001,10.372 14.615,16.501c8.329,14.144 12.494,29.977 12.494,47.499c0,17.522 -1.925,32.452 -5.775,44.788c-3.85,12.336 -10.018,23.376 -18.505,33.12c-17.601,20.43 -47.538,30.645 -89.812,30.645l-129.886,0c-9.743,0 -17.601,-2.986 -23.573,-8.958l-4.95,4.479c6.286,6.286 9.429,14.144 9.429,23.573l0,74.961c0,12.101 -0.157,26.952 -0.471,44.552l-10.608,0.943c-2.043,-17.601 -4.715,-26.401 -8.015,-26.401l-84.39,0c-1.886,0 -3.418,3.811 -4.597,11.433c-1.179,7.622 -1.768,14.929 -1.768,21.923c0,6.993 1.493,18.897 4.479,35.713c2.986,16.815 4.479,28.602 4.479,35.359c0,14.458 -5.265,21.687 -15.794,21.687c-10.529,0 -15.794,-7.386 -15.794,-22.158c0,-7.072 1.729,-19.565 5.186,-37.481c3.457,-17.915 5.186,-30.487 5.186,-37.716Zm122.107,-245.864l0,13.908c0,9.272 -3.143,17.051 -9.429,23.337l4.95,4.95c6.129,-6.129 13.986,-9.193 23.573,-9.193l76.376,0c15.872,0 25.38,-0.904 28.523,-2.711c3.143,-1.807 5.815,-3.654 8.015,-5.54c3.772,-3.457 5.657,-8.408 5.657,-14.851c0,-6.443 -0.668,-11.197 -2.004,-14.262c-1.336,-3.064 -3.261,-5.461 -5.775,-7.19c-2.514,-1.729 -5.029,-3.143 -7.543,-4.243c-2.514,-1.1 -5.579,-1.886 -9.193,-2.357c-5.029,-0.629 -10.608,-0.943 -16.737,-0.943l-77.319,0c-9.743,0 -17.601,-2.986 -23.573,-8.958l-4.95,4.479c6.286,6.286 9.429,14.144 9.429,23.573Zm-56.575,233.134l6.129,55.867c0,9.586 -3.497,14.379 -10.49,14.379c-6.993,0 -10.49,-4.872 -10.49,-14.615c0,-5.657 1.454,-15.519 4.361,-29.584c2.907,-14.065 4.361,-23.258 4.361,-27.58c0,-4.322 -0.039,-9.861 -0.118,-16.619c-0.079,-6.758 -0.118,-12.415 -0.118,-16.972l10.608,12.494c-1.1,0 -2.082,2.554 -2.947,7.661c-0.864,5.107 -1.297,10.097 -1.297,14.969Z" style="fill:#cf0;fill-rule:nonzero;"/><path d="M1559.808,370.564l1.65,-22.63c0,-3.929 -1.886,-6.954 -5.657,-9.076c-3.772,-2.122 -7.858,-3.182 -12.258,-3.182c-4.4,0 -8.329,1.179 -11.786,3.536c-3.457,2.357 -5.186,5.736 -5.186,10.136l0,54.217c0,7.858 1.65,19.408 4.95,34.652c3.3,15.244 4.95,26.126 4.95,32.648c0,6.522 -1.414,11.904 -4.243,16.147c-2.829,4.243 -6.718,6.365 -11.669,6.365c-4.95,0 -8.683,-2.2 -11.197,-6.6c-2.514,-4.4 -3.772,-10.136 -3.772,-17.208c0,-7.072 1.807,-19.33 5.422,-36.773c3.614,-17.444 5.422,-30.959 5.422,-40.545c0,-38.816 -7.229,-58.225 -21.687,-58.225c-19.487,0 -29.23,-0.786 -29.23,-2.357l0,0.471c0,10.843 2.397,26.755 7.19,47.735c4.793,20.98 7.19,36.027 7.19,45.142c0,9.115 -1.65,16.619 -4.95,22.512c-3.3,5.893 -8.368,8.84 -15.204,8.84c-6.836,0 -12.179,-2.829 -16.029,-8.486c-3.85,-5.657 -5.775,-13.004 -5.775,-22.041c0,-9.036 2.279,-24.516 6.836,-46.438c4.557,-21.923 6.836,-38.541 6.836,-49.856c-37.245,-11.786 -65.257,-31.037 -84.037,-57.753c-18.78,-26.716 -28.169,-59.718 -28.169,-99.006c0,-81.405 41.017,-132.793 123.05,-154.166c26.559,-6.915 54.021,-10.372 82.387,-10.372c28.366,0 52.489,1.572 72.368,4.715c19.88,3.143 39.131,8.683 57.753,16.619c18.622,7.936 34.495,17.994 47.617,30.173c13.122,12.179 23.612,27.894 31.47,47.145c7.858,19.251 11.786,41.213 11.786,65.886c0,50.289 -14.144,89.223 -42.431,116.803c-28.287,27.58 -68.047,44.513 -119.278,50.799c-0.629,1.1 -0.943,2.829 -0.943,5.186l1.179,12.965c0,8.015 -2.2,12.022 -6.6,12.022c-4.4,0 -6.6,-3.85 -6.6,-11.551l0.707,-13.201c0,-4.715 -3.379,-7.072 -10.136,-7.072c-0.629,1.414 -0.943,4.086 -0.943,8.015l1.179,22.866c0,4.715 -0.864,9.272 -2.593,13.672c-1.729,4.4 -4.636,6.6 -8.722,6.6c-7.229,0 -10.843,-6.443 -10.843,-19.33Zm-89.105,-197.54c0,57.517 27.344,86.276 82.033,86.276c54.689,0 82.033,-28.759 82.033,-86.276c0,-26.401 -7.072,-46.595 -21.215,-60.582c-14.144,-13.986 -34.416,-20.98 -60.818,-20.98c-26.401,0 -46.674,6.993 -60.818,20.98c-14.144,13.986 -21.215,34.18 -21.215,60.582Z" style="fill:#cf0;fill-rule:nonzero;"/><path d="M1916.228,405.451l5.657,-63.882c0,-5.029 -2.829,-9.193 -8.486,-12.494c-9.272,-5.186 -20.587,-7.779 -33.945,-7.779c-17.915,0 -30.252,3.536 -37.009,10.608c-2.986,3.143 -4.479,7.74 -4.479,13.79c0,6.05 1.807,16.619 5.422,31.705c3.614,15.087 5.422,25.734 5.422,31.941c0,6.207 -1.139,11.158 -3.418,14.851c-2.279,3.693 -5.618,5.54 -10.018,5.54c-4.4,0 -7.779,-1.847 -10.136,-5.54c-2.357,-3.693 -3.536,-8.683 -3.536,-14.969c0,-6.286 1.925,-17.13 5.775,-32.53c3.85,-15.401 5.775,-27.03 5.775,-34.888l-0.236,-289.002c0,-18.544 -5.657,-34.023 -16.972,-46.438l4.95,-4.95c12.729,11.315 28.209,16.972 46.438,16.972l70.483,0c10.058,0 18.583,-1.218 25.576,-3.654c6.993,-2.436 12.611,-7.268 16.855,-14.497l7.779,3.772c-4.086,9.743 -6.129,18.937 -6.129,27.58c0,7.072 12.415,24.83 37.245,53.274c32.373,37.088 53.196,61.996 62.468,74.726c9.272,12.729 15.322,23.023 18.151,30.88l14.144,0c-7.7,-11.315 -11.551,-27.266 -11.551,-47.853c0,-9.586 1.179,-23.926 3.536,-43.02c2.357,-19.094 3.536,-33.434 3.536,-43.02c0,-25.773 -8.172,-42.51 -24.516,-50.21l4.95,-4.95c12.729,11.315 28.209,16.972 46.438,16.972l48.324,0c18.23,0 33.709,-5.657 46.438,-16.972l4.715,4.95c-11.158,12.572 -16.737,28.052 -16.737,46.438l-0.471,287.823c0,6.758 1.572,16.855 4.715,30.291c3.143,13.436 4.715,23.533 4.715,30.291c0,10.058 -3.85,15.087 -11.551,15.087c-7.7,0 -11.551,-5.029 -11.551,-15.087c0,-6.6 1.493,-16.304 4.479,-29.112c2.986,-12.808 4.479,-21.608 4.479,-26.401c0,-4.793 -1.572,-8.211 -4.715,-10.254c-3.143,-2.043 -6.207,-3.064 -9.193,-3.064l-93.112,0c-13.201,0 -19.801,12.022 -19.801,36.066c0,9.901 1.847,24.241 5.54,43.02c3.693,18.78 5.54,32.963 5.54,42.549c0,13.672 -5.107,20.508 -15.322,20.508c-10.215,0 -15.322,-6.915 -15.322,-20.744c0,-8.8 2.004,-21.608 6.011,-38.424c4.007,-16.815 6.09,-29.466 6.247,-37.952l0.471,-31.352c0.471,-14.615 -1.021,-24.123 -4.479,-28.523l-112.913,-143.087c-2.986,-3.929 -6.286,-12.101 -9.901,-24.516l-14.379,0.471c8.172,8.486 12.258,17.915 12.258,28.287l0,134.6l4.479,119.278c0,2.514 -0.746,4.675 -2.239,6.483c-1.493,1.807 -3.536,2.711 -6.129,2.711c-2.593,0 -4.754,-1.061 -6.483,-3.182c-1.729,-2.122 -2.593,-4.518 -2.593,-7.19l2.829,-90.519c0,-1.886 -0.707,-3.614 -2.122,-5.186c-1.414,-1.572 -3.064,-2.357 -4.95,-2.357c-4.086,0 -6.129,3.143 -6.129,9.429c0,6.286 1.061,16.579 3.182,30.88c2.122,14.301 3.182,24.123 3.182,29.466c0,11.944 -2.947,17.915 -8.84,17.915c-5.893,0 -8.84,-5.186 -8.84,-15.558Z" style="fill:#cf0;fill-rule:nonzero;"/><path d="M2284.906,79.44l1.179,-30.173c0,-17.287 -3.379,-29.23 -10.136,-35.831l4.715,-4.715c6.286,6.129 14.065,9.193 23.337,9.193l309.51,0c9.586,0 17.444,-3.064 23.573,-9.193l4.715,4.715c-5.972,5.972 -8.958,13.829 -8.958,23.573l-1.179,30.173c0,16.972 3.379,28.837 10.136,35.595l-4.715,4.95c-7.072,-7.229 -18.544,-10.843 -34.416,-10.843l-52.096,3.3c-16.501,0 -28.366,-3.614 -35.595,-10.843l-4.95,4.715c6.129,5.972 9.193,13.829 9.193,23.573l0,195.654c0,16.344 1.454,40.702 4.361,73.076c2.907,32.373 4.361,53.667 4.361,63.882c0,17.915 -3.222,26.873 -9.665,26.873c-6.443,0 -9.665,-6.365 -9.665,-19.094c0,-12.729 1.061,-29.977 3.182,-51.742c2.122,-21.766 3.182,-38.149 3.182,-49.149c0,-17.13 -3.379,-25.694 -10.136,-25.694c-3.3,0 -5.893,1.964 -7.779,5.893c-1.886,3.929 -2.829,7.779 -2.829,11.551l5.422,49.267c0,11.315 -3.222,16.972 -9.665,16.972c-3.3,0 -5.736,-1.65 -7.308,-4.95c-1.572,-3.3 -2.357,-7.15 -2.357,-11.551c0,-4.4 1.414,-11.59 4.243,-21.569c2.829,-9.979 4.243,-18.112 4.243,-24.398c0,-6.286 -2.711,-11.079 -8.133,-14.379c-5.422,-3.3 -12.258,-4.95 -20.508,-4.95c-8.25,0 -16.815,1.65 -25.694,4.95c-8.879,3.3 -16.697,8.447 -23.455,15.44c-6.758,6.993 -10.136,13.908 -10.136,20.744c0,6.836 1.061,15.126 3.182,24.869c2.122,9.743 3.182,17.876 3.182,24.398c0,6.522 -2.907,9.783 -8.722,9.783c-6.6,0 -9.901,-3.497 -9.901,-10.49c0,-6.993 1.257,-15.833 3.772,-26.519c2.514,-10.686 3.772,-18.701 3.772,-24.044l0,-61.289c0.314,-86.119 0.471,-150.63 0.471,-193.532c0,-9.901 2.986,-17.758 8.958,-23.573l-4.715,-4.715c-6.915,7.072 -18.387,10.608 -34.416,10.608l-50.681,-3.064c-16.187,0 -27.894,3.614 -35.123,10.843l-4.715,-4.95c5.972,-5.972 8.958,-13.751 8.958,-23.337Zm203.197,371.271c3.772,17.287 5.657,32.295 5.657,45.024c0,5.5 -1.964,8.25 -5.893,8.25c-3.929,0 -5.893,-2.514 -5.893,-7.543c0,-14.144 2.043,-29.387 6.129,-45.731Z" style="fill:#cf0;fill-rule:nonzero;"/></g></g></svg>