<?xml version="1.0" encoding="UTF-8" standalone="no"?>
<!DOCTYPE svg PUBLIC "-//W3C//DTD SVG 1.1//EN" "http://www.w3.org/Graphics/SVG/1.1/DTD/svg11.dtd">
<svg width="100%" height="100%" viewBox="0 0 2680 561" version="1.1" xmlns="http://www.w3.org/2000/svg" xmlns:xlink="http://www.w3.org/1999/xlink" xml:space="preserve" xmlns:serif="http://www.serif.com/" style="fill-rule:evenodd;clip-rule:evenodd;stroke-linejoin:round;stroke-miterlimit:2;">
    <g id="szpont-logo" transform="matrix(1.014384,0,0,1.095703,0,0)">
        <rect x="0" y="0" width="2641.797" height="512" style="fill:none;"/>
        <g id="Szpont" transform="matrix(1,0,0,0.98574,0,7.301248)">
            <g transform="matrix(0.665837,0,0,0.625338,-42.387529,7.002767)">
                <path d="M343.947,613.911L347.437,578.661L347.437,513.396C284.848,510.139 238.08,501.588 207.134,487.744C176.189,473.9 153.387,456.507 138.728,435.566C129.886,423.235 123.081,409.449 118.311,394.209C113.541,378.968 121.801,362.972 134.016,362.972C146.232,362.972 161.879,362.507 180.958,361.576C200.038,360.645 221.56,359.54 245.526,358.26C269.491,356.981 286.593,356.108 296.83,355.643C307.068,355.177 344.645,351.825 344.645,354.849C344.645,362.528 351.043,366.811 363.84,376.584C376.638,386.356 399.789,391.242 433.294,391.242C455.863,391.242 471.918,387.403 481.457,379.725C485.646,376.234 487.74,372.046 487.74,367.16C487.74,355.759 481.457,348.197 468.893,344.474C456.329,340.752 441.147,337.552 423.347,334.877C405.547,332.201 387.748,330.049 369.948,328.42C352.149,326.791 332.895,324.464 312.187,321.44C291.479,318.415 271.934,315.099 253.553,311.493C235.172,307.886 217.314,302.593 199.98,295.613C182.645,288.633 167.812,280.431 155.481,271.007C143.149,261.584 133.202,249.485 125.64,234.71C118.078,219.935 114.297,203.125 114.297,184.278C114.297,165.431 117.264,148.214 123.197,132.624C129.13,117.035 137.216,103.656 147.453,92.488C157.691,81.32 170.081,71.431 184.623,62.822C199.165,54.213 214.405,47.233 230.344,41.881C246.282,36.53 263.674,32.225 282.521,28.968C315.328,22.918 346.274,19.894 375.358,19.894C404.442,19.894 426.604,20.301 441.845,21.115C457.085,21.93 475.001,23.442 495.592,25.652C516.184,27.863 534.798,31.469 551.434,36.472C568.07,41.474 584.532,47.815 600.819,55.493C634.79,71.315 658.639,95.862 672.367,129.134C677.951,141.001 669.807,160.196 657.01,160.196L652.473,160.196C633.859,160.894 607.276,162.232 572.724,164.21C538.172,166.188 515.951,167.409 506.063,167.875C496.174,168.34 471.311,163.814 468.487,163.179C463.713,162.107 453.304,156.299 437.482,149.202C421.66,142.106 403.744,138.558 383.734,138.558C344.645,138.558 325.1,146.236 325.1,161.592C325.1,175.32 354.417,185.325 413.051,191.607C426.779,193.236 442.368,194.865 459.819,196.494C520.547,202.776 567.082,211.036 599.423,221.273C667.364,242.679 701.335,283.514 701.335,343.776C701.335,368.44 696.216,390.602 685.978,410.263C675.741,429.924 662.42,445.92 646.016,458.252C629.613,470.584 610.243,480.822 587.906,488.965C547.653,503.624 501.7,510.953 450.046,510.953C436.086,510.953 427.826,510.837 425.267,510.604C412.702,510.604 406.42,520.26 406.42,539.572L406.42,547.948C406.42,554.23 407.99,563.479 411.132,575.695C414.273,587.91 415.843,597.042 415.843,603.092C415.843,615.424 411.539,621.59 402.93,621.59C398.509,621.59 395.077,619.728 392.634,616.005C390.191,612.283 388.969,607.629 388.969,602.045C388.969,596.461 390.424,586.979 393.332,573.601C396.24,560.222 397.695,550.508 397.695,544.458C397.695,538.409 397.636,534.162 397.52,531.719C397.404,529.276 397.055,526.251 396.473,522.645C395.891,519.038 394.903,516.421 393.506,514.792C390.249,510.604 384.665,508.51 376.754,508.51C362.328,508.51 355.115,521.074 355.115,546.203L357.209,603.441C357.209,618.798 354.999,626.476 350.578,626.476C346.157,626.476 343.947,622.288 343.947,613.911Z" style="fill:rgb(204,255,0);fill-rule:nonzero;"/>
                <path d="M573.462,188.884C585.86,191.666 596.986,194.62 606.843,197.739C687.205,223.06 726.011,272.495 726.011,343.776C726.011,372.68 719.863,398.618 707.865,421.66C695.838,444.758 680.115,463.489 660.844,477.976C642.631,491.669 621.16,503.106 596.358,512.149L596.35,512.152C553.625,527.711 504.872,535.629 450.046,535.629C442.149,535.629 435.925,535.576 431.374,535.49C431.217,536.844 431.096,538.301 431.096,539.572L431.096,547.948C431.096,552.849 432.58,560.019 435.03,569.549C438.871,584.484 440.519,595.696 440.519,603.092C440.519,619.32 435.034,629.985 428.237,636.476C421.85,642.575 413.574,646.266 402.93,646.266C392.038,646.266 383.131,642.528 376.233,635.009C375.643,636.223 375.041,637.273 374.444,638.162C368.085,647.629 359.663,651.152 350.578,651.152C343.113,651.152 336.866,648.744 331.641,644.501C325.628,639.618 319.271,630.188 319.271,613.911C319.271,613.099 319.311,612.288 319.391,611.48L322.761,577.443L322.761,536.516C267.845,532.183 225.985,523.21 197.057,510.269C161.445,494.337 135.497,473.925 118.637,449.894C108.312,435.482 100.334,419.386 94.761,401.579C89.31,384.162 93.422,366.32 102.107,354.758C109.984,344.271 121.354,338.296 134.016,338.296C145.919,338.296 161.165,337.836 179.756,336.929C197.669,336.055 217.739,335.027 239.966,333.845C223.154,330.056 206.752,324.942 190.762,318.503C171.166,310.612 154.438,301.267 140.498,290.614C125.307,279.006 112.989,264.154 103.674,245.953C94.42,227.873 89.621,207.341 89.621,184.278C89.621,162.223 93.191,142.09 100.135,123.847C107.242,105.173 117,89.192 129.263,75.814C141.059,62.946 155.297,51.507 172.052,41.588C188.094,32.091 204.907,24.392 222.489,18.489C239.505,12.775 258.065,8.159 278.162,4.68C312.506,-1.647 344.907,-4.783 375.358,-4.783C405.018,-4.783 427.619,-4.356 443.161,-3.526C458.775,-2.692 477.13,-1.147 498.226,1.117C520.469,3.505 540.569,7.437 558.54,12.841C576.309,18.184 593.894,24.95 611.291,33.149C651.025,51.669 678.864,80.454 694.998,119.29C701.44,133.718 699.066,153.277 689.901,166.638C682.059,178.071 670.176,184.873 657.01,184.873L652.933,184.873C634.456,185.571 608.189,186.897 574.134,188.846L573.462,188.884ZM343.947,613.911C343.947,622.288 346.157,626.476 350.578,626.476C354.999,626.476 357.209,618.798 357.209,603.441L355.115,546.203C355.115,521.074 362.328,508.51 376.754,508.51C384.665,508.51 390.249,510.604 393.506,514.792C394.903,516.421 395.891,519.038 396.473,522.645C397.055,526.251 397.404,529.276 397.52,531.719C397.636,534.162 397.695,538.409 397.695,544.458C397.695,550.508 396.24,560.222 393.332,573.601C390.424,586.979 388.969,596.461 388.969,602.045C388.969,607.629 390.191,612.283 392.634,616.005C395.077,619.728 398.509,621.59 402.93,621.59C411.539,621.59 415.843,615.424 415.843,603.092C415.843,597.042 414.273,587.91 411.132,575.695C407.99,563.479 406.42,554.23 406.42,547.948L406.42,539.572C406.42,520.26 412.702,510.604 425.267,510.604C427.826,510.837 436.086,510.953 450.046,510.953C501.7,510.953 547.653,503.624 587.906,488.965C610.243,480.822 629.613,470.584 646.016,458.252C662.42,445.92 675.741,429.924 685.978,410.263C696.216,390.602 701.335,368.44 701.335,343.776C701.335,283.514 667.364,242.679 599.423,221.273C567.082,211.036 520.547,202.776 459.819,196.494C442.368,194.865 426.779,193.236 413.051,191.607C354.417,185.325 325.1,175.32 325.1,161.592C325.1,146.236 344.645,138.558 383.734,138.558C403.744,138.558 421.66,142.106 437.482,149.202C453.304,156.299 463.713,162.107 468.487,163.179C471.311,163.814 496.174,168.34 506.063,167.875C515.951,167.409 538.172,166.188 572.724,164.21C607.276,162.232 633.859,160.894 652.473,160.196L657.01,160.196C669.807,160.196 677.951,141.001 672.367,129.134C658.639,95.862 634.79,71.315 600.819,55.493C584.532,47.815 568.07,41.474 551.434,36.472C534.798,31.469 516.184,27.863 495.592,25.652C475.001,23.442 457.085,21.93 441.845,21.115C426.604,20.301 404.442,19.894 375.358,19.894C346.274,19.894 315.328,22.918 282.521,28.968C263.674,32.225 246.282,36.53 230.344,41.881C214.405,47.233 199.165,54.213 184.623,62.822C170.081,71.431 157.691,81.32 147.453,92.488C137.216,103.656 129.13,117.035 123.197,132.624C117.264,148.214 114.297,165.431 114.297,184.278C114.297,203.125 118.078,219.935 125.64,234.71C133.202,249.485 143.149,261.584 155.481,271.007C167.812,280.431 182.645,288.633 199.98,295.613C217.314,302.593 235.172,307.886 253.553,311.493C271.934,315.099 291.479,318.415 312.187,321.44C332.895,324.464 352.149,326.791 369.948,328.42C387.748,330.049 405.547,332.201 423.347,334.877C441.147,337.552 456.329,340.752 468.893,344.474C481.457,348.197 487.74,355.759 487.74,367.16C487.74,372.046 485.646,376.234 481.457,379.725C471.918,387.403 455.863,391.242 433.294,391.242C399.789,391.242 376.638,386.356 363.84,376.584C351.043,366.811 344.645,362.528 344.645,354.849C344.645,351.825 307.068,355.177 296.83,355.643C286.593,356.108 269.491,356.981 245.526,358.26C221.56,359.54 200.038,360.645 180.958,361.576C161.879,362.507 146.232,362.972 134.016,362.972C121.801,362.972 113.541,378.968 118.311,394.209C123.081,409.449 129.886,423.235 138.728,435.566C153.387,456.507 176.189,473.9 207.134,487.744C238.08,501.588 284.848,510.139 347.437,513.396L347.437,578.661L343.947,613.911ZM369.092,353.122L368.992,353.113L369.321,354.849C369.321,354.328 369.233,353.737 369.092,353.122ZM413.51,166.836C405.145,164.625 396.172,163.456 386.604,163.263C394.644,164.562 403.614,165.747 413.51,166.836ZM374.538,353.646C375.938,354.75 377.405,355.893 378.817,356.972C388.789,364.587 407.184,366.566 433.294,366.566C440.651,366.566 447.061,366.352 452.404,365.571C442.832,363.207 431.922,361.119 419.679,359.279C404.632,357.017 389.585,355.139 374.538,353.646Z"/>
            </g>
            <g transform="matrix(0.665837,0,0,0.625338,-42.387529,7.002767)">
                <path d="M1300.588,716.521L1309.662,559.466C1306.87,545.272 1297.039,532.65 1280.17,521.598C1263.302,510.546 1247.189,505.02 1231.832,505.02C1206.703,505.02 1194.139,526.542 1194.139,569.587L1195.884,626.476C1195.884,634.154 1197.397,645.497 1200.421,660.504C1203.446,675.512 1204.958,687.436 1204.958,696.278C1204.958,716.055 1198.618,725.944 1185.937,725.944C1173.257,725.944 1166.916,716.637 1166.916,698.023C1166.916,691.276 1169.301,679.816 1174.071,663.646C1178.841,647.475 1181.226,637.179 1181.226,632.758L1181.226,597.159C1181.226,540.386 1169.708,512 1146.673,512L837.1,512C819.65,512 808.016,515.025 802.199,521.074C796.382,527.124 793.474,536.547 793.474,549.344L799.058,743.046C799.058,753.981 797.138,762.532 793.299,768.698C789.46,774.864 784.865,777.947 779.513,777.947C774.162,777.947 769.683,774.922 766.076,768.873C762.47,762.823 760.667,752.527 760.667,737.985C760.667,723.443 763.168,693.253 768.17,647.416C773.173,601.58 775.674,569.703 775.674,551.787L774.976,483.73L774.976,438.359C774.976,423.51 783.363,403.122 796.266,391.94L1040.574,181.835C1051.742,172.528 1047.554,163.337 1033.594,163.337L826.979,163.337C813.018,163.337 798.709,149.261 798.709,135.067L798.709,75.387C798.709,61.193 813.018,47.117 826.979,47.117L1307.568,47.117C1321.296,47.117 1335.838,61.193 1335.838,75.387L1335.838,129.483C1335.838,142.851 1329.021,160.736 1313.85,175.902L1077.918,374.14C1067.913,382.517 1070.473,391.94 1084.2,391.94L1297.097,391.94C1311.523,391.94 1325.367,406.017 1325.367,420.21L1325.367,557.372C1325.367,572.03 1328.858,598.206 1335.838,635.899C1342.818,673.592 1346.308,699.245 1346.308,712.856C1346.308,726.468 1344.156,736.531 1339.851,743.046C1335.547,749.561 1330.312,752.818 1324.146,752.818C1317.98,752.818 1312.512,749.561 1307.742,743.046C1302.973,736.531 1300.588,727.689 1300.588,716.521Z" style="fill:rgb(204,255,0);fill-rule:nonzero;"/>
                <path d="M995.545,188.014L826.979,188.014C813.826,188.014 800.237,181.995 790.208,172.021C780.173,162.042 774.033,148.447 774.033,135.067L774.033,75.387C774.033,62.007 780.173,48.412 790.208,38.433C800.237,28.459 813.826,22.44 826.979,22.44L1307.568,22.44C1320.503,22.44 1334.118,28.41 1344.204,38.385C1354.3,48.372 1360.514,61.998 1360.514,75.387L1360.514,129.483C1360.514,147.763 1352.041,172.615 1331.296,193.354C1330.793,193.856 1330.269,194.337 1329.724,194.794L1124.461,367.264L1297.097,367.264C1324.115,367.264 1350.044,393.628 1350.044,420.21L1350.044,557.372C1350.044,571.196 1353.518,595.858 1360.101,631.406C1367.487,671.287 1370.984,698.455 1370.984,712.856C1370.984,732.716 1366.72,747.143 1360.44,756.649C1350.7,771.39 1338.097,777.494 1324.146,777.494C1310.778,777.494 1298.173,771.747 1287.832,757.623C1280.402,747.474 1275.911,733.918 1275.911,716.521C1275.911,716.046 1275.925,715.571 1275.952,715.097L1284.81,561.779C1282.383,554.356 1275.826,548.252 1266.647,542.239C1254.432,534.235 1242.953,529.696 1231.832,529.696C1227.428,529.696 1224.928,532.688 1223.166,537.214C1220.05,545.22 1218.838,555.921 1218.816,569.219L1220.549,625.719C1220.556,625.971 1220.56,626.224 1220.56,626.476C1220.56,633.059 1222.018,642.762 1224.611,655.629C1228.047,672.675 1229.635,686.236 1229.635,696.278C1229.635,716.58 1223.706,730.182 1215.896,738.303C1208.351,746.148 1198.512,750.62 1185.937,750.62C1173.576,750.62 1163.922,746.371 1156.505,739.113C1148.378,731.16 1142.24,717.905 1142.24,698.023C1142.24,689.922 1144.676,676.078 1150.403,656.664C1154.116,644.075 1156.549,636.2 1156.549,632.758L1156.549,597.159C1156.549,577.143 1155.126,561.11 1151.877,549.1C1150.818,545.186 1149.61,541.824 1148.075,539.084C1147.505,538.066 1147.657,536.676 1146.673,536.676L837.1,536.676C829.905,536.676 821.309,538.502 819.387,538.931C817.88,541.236 818.134,544.739 818.149,548.961L823.724,742.335C823.731,742.572 823.734,742.809 823.734,743.046C823.734,759.618 820.065,772.397 814.247,781.741C804.874,796.793 792.578,802.623 779.513,802.623C766.126,802.623 753.903,796.642 744.881,781.508C739.772,772.938 735.99,758.586 735.99,737.985C735.99,723.014 738.49,691.928 743.64,644.739C748.491,600.285 750.986,569.345 750.998,551.907L750.301,483.983L750.3,483.73L750.3,438.359C750.3,417.55 762.023,388.963 780.105,373.292L780.176,373.231L995.545,188.014ZM1300.588,716.521C1300.588,727.689 1302.973,736.531 1307.742,743.046C1312.512,749.561 1317.98,752.818 1324.146,752.818C1330.312,752.818 1335.547,749.561 1339.851,743.046C1344.156,736.531 1346.308,726.468 1346.308,712.856C1346.308,699.245 1342.818,673.592 1335.838,635.899C1328.858,598.206 1325.367,572.03 1325.367,557.372L1325.367,420.21C1325.367,406.017 1311.523,391.94 1297.097,391.94L1084.2,391.94C1070.473,391.94 1067.913,382.517 1077.918,374.14L1313.85,175.902C1329.021,160.736 1335.838,142.851 1335.838,129.483L1335.838,75.387C1335.838,61.193 1321.296,47.117 1307.568,47.117L826.979,47.117C813.018,47.117 798.709,61.193 798.709,75.387L798.709,135.067C798.709,149.261 813.018,163.337 826.979,163.337L1033.594,163.337C1047.554,163.337 1051.742,172.528 1040.574,181.835L796.266,391.94C783.363,403.122 774.976,423.51 774.976,438.359L774.976,483.73L775.674,551.787C775.674,569.703 773.173,601.58 768.17,647.416C763.168,693.253 760.667,723.443 760.667,737.985C760.667,752.527 762.47,762.823 766.076,768.873C769.683,774.922 774.162,777.947 779.513,777.947C784.865,777.947 789.46,774.864 793.299,768.698C797.138,762.532 799.058,753.981 799.058,743.046L793.474,549.344C793.474,536.547 796.382,527.124 802.199,521.074C808.016,515.025 819.65,512 837.1,512L1146.673,512C1169.708,512 1181.226,540.386 1181.226,597.159L1181.226,632.758C1181.226,637.179 1178.841,647.475 1174.071,663.646C1169.301,679.816 1166.916,691.276 1166.916,698.023C1166.916,716.637 1173.257,725.944 1185.937,725.944C1198.618,725.944 1204.958,716.055 1204.958,696.278C1204.958,687.436 1203.446,675.512 1200.421,660.504C1197.397,645.497 1195.884,634.154 1195.884,626.476L1194.139,569.587C1194.139,526.542 1206.703,505.02 1231.832,505.02C1247.189,505.02 1263.302,510.546 1280.17,521.598C1297.039,532.65 1306.87,545.272 1309.662,559.466L1300.588,716.521Z"/>
            </g>
            <g transform="matrix(0.665837,0,0,0.625338,-42.387529,7.002767)">
                <path d="M1449.965,554.579L1449.267,483.73L1449.267,73.99C1449.267,59.797 1463.343,45.721 1477.536,45.721L1778.733,45.721C1826.897,45.721 1859.53,47.117 1876.631,49.909C1893.733,52.701 1908.682,55.784 1921.479,59.157C1934.276,62.531 1944.979,66.545 1953.588,71.198C1962.197,75.852 1971.039,81.785 1980.113,88.998C1989.187,96.211 1996.4,104.354 2001.752,113.429C2014.084,134.369 2020.249,157.811 2020.249,183.755C2020.249,209.698 2017.399,231.802 2011.699,250.067C2005.998,268.332 1996.866,284.677 1984.301,299.103C1958.242,329.351 1913.917,344.474 1851.328,344.474L1659.022,344.474C1644.597,344.474 1630.753,358.784 1630.753,372.744L1630.753,483.73C1630.753,501.646 1630.52,523.634 1630.055,549.693L1614.349,551.089C1611.324,525.03 1607.369,512 1602.483,512L1477.536,512C1474.744,512 1472.476,517.642 1470.731,528.927C1468.986,540.212 1468.113,551.031 1468.113,561.385C1468.113,571.739 1470.324,589.364 1474.744,614.26C1479.165,639.157 1481.376,656.607 1481.376,666.612C1481.376,688.018 1473.581,698.721 1457.992,698.721C1442.403,698.721 1434.608,687.786 1434.608,665.914C1434.608,655.444 1437.167,636.946 1442.286,610.421C1447.405,583.896 1449.965,565.282 1449.965,554.579ZM1630.753,190.56L1630.753,211.152C1630.753,224.88 1644.829,239.422 1659.022,239.422L1772.102,239.422C1795.602,239.422 1809.679,238.084 1814.333,235.408C1818.986,232.733 1822.942,229.999 1826.199,227.207C1831.783,222.088 1834.575,214.758 1834.575,205.219C1834.575,195.679 1833.586,188.641 1831.609,184.104C1829.631,179.566 1826.781,176.018 1823.058,173.459C1819.335,170.899 1815.612,168.805 1811.89,167.177C1808.167,165.548 1803.63,164.384 1798.278,163.686C1790.833,162.756 1782.573,162.29 1773.498,162.29L1659.022,162.29C1644.597,162.29 1630.753,176.6 1630.753,190.56ZM1546.99,535.733L1556.064,618.449C1556.064,632.642 1550.887,639.738 1540.533,639.738C1530.179,639.738 1525.002,632.525 1525.002,618.1C1525.002,609.723 1527.154,595.123 1531.459,574.299C1535.763,553.474 1537.915,539.863 1537.915,533.464C1537.915,527.066 1537.426,512 1537.426,512L1548.858,512C1548.858,512 1546.99,528.52 1546.99,535.733Z" style="fill:rgb(204,255,0);fill-rule:nonzero;"/>
                <path d="M1587.007,536.676L1571.918,536.676L1580.593,615.758C1580.691,616.651 1580.74,617.55 1580.74,618.449C1580.74,635.984 1574.795,647.533 1567.119,654.548C1560.413,660.676 1551.711,664.414 1540.533,664.414C1529.294,664.414 1520.543,660.62 1513.8,654.356C1509.67,650.521 1506.042,645.33 1503.594,638.554C1505.256,650.786 1506.052,660.142 1506.052,666.612C1506.052,688.463 1499.167,703.045 1489.619,711.785C1481.653,719.078 1471.27,723.397 1457.992,723.397C1444.633,723.397 1434.185,718.991 1426.17,711.494C1416.746,702.68 1409.932,687.95 1409.932,665.914C1409.932,654.567 1412.509,634.493 1418.057,605.745C1422.732,581.52 1425.269,564.519 1425.288,554.69L1424.592,483.973L1424.59,483.73L1424.59,73.99C1424.59,60.621 1430.658,47.057 1440.63,37.084C1450.603,27.112 1464.167,21.044 1477.536,21.044L1778.733,21.044C1828.856,21.044 1862.81,22.649 1880.607,25.555C1898.593,28.491 1914.311,31.748 1927.77,35.297C1942.751,39.246 1955.244,44.043 1965.322,49.491C1975.1,54.776 1985.161,61.488 1995.468,69.681C2007.042,78.88 2016.182,89.32 2023.007,100.894L2023.015,100.907C2037.548,125.585 2044.926,153.181 2044.926,183.755C2044.926,212.583 2041.589,237.123 2035.254,257.419C2028.53,278.963 2017.762,298.244 2002.949,315.264C1973.087,349.885 1923,369.151 1851.328,369.151L1659.022,369.151C1658.167,369.151 1657.646,370.096 1657.022,370.727C1656.385,371.371 1655.429,371.9 1655.429,372.744L1655.429,483.73C1655.429,501.766 1655.195,523.9 1654.727,550.134C1654.502,562.745 1644.803,573.156 1632.239,574.273L1616.534,575.669C1603.217,576.852 1591.379,567.215 1589.837,553.934C1589.141,547.934 1588.006,541.635 1587.007,536.676ZM1537.426,512C1537.426,512 1537.915,527.066 1537.915,533.464C1537.915,539.863 1535.763,553.474 1531.459,574.299C1527.154,595.123 1525.002,609.723 1525.002,618.1C1525.002,632.525 1530.179,639.738 1540.533,639.738C1550.887,639.738 1556.064,632.642 1556.064,618.449L1546.99,535.733C1546.99,528.52 1548.858,512 1548.858,512L1602.483,512C1607.369,512 1611.324,525.03 1614.349,551.089L1630.055,549.693C1630.52,523.634 1630.753,501.646 1630.753,483.73L1630.753,372.744C1630.753,358.784 1644.597,344.474 1659.022,344.474L1851.328,344.474C1913.917,344.474 1958.242,329.351 1984.301,299.103C1996.866,284.677 2005.998,268.332 2011.699,250.067C2017.399,231.802 2020.249,209.698 2020.249,183.755C2020.249,157.811 2014.084,134.369 2001.752,113.429C1996.4,104.354 1989.187,96.211 1980.113,88.998C1971.039,81.785 1962.197,75.852 1953.588,71.198C1944.979,66.545 1934.276,62.531 1921.479,59.157C1908.682,55.784 1893.733,52.701 1876.631,49.909C1859.53,47.117 1826.897,45.721 1778.733,45.721L1477.536,45.721C1463.343,45.721 1449.267,59.797 1449.267,73.99L1449.267,483.73L1449.965,554.579C1449.965,565.282 1447.405,583.896 1442.286,610.421C1437.167,636.946 1434.608,655.444 1434.608,665.914C1434.608,687.786 1442.403,698.721 1457.992,698.721C1473.581,698.721 1481.376,688.018 1481.376,666.612C1481.376,656.607 1479.165,639.157 1474.744,614.26C1470.324,589.364 1468.113,571.739 1468.113,561.385C1468.113,551.031 1468.986,540.212 1470.731,528.927C1472.476,517.642 1474.744,512 1477.536,512L1537.426,512ZM1630.753,190.56C1630.753,176.6 1644.597,162.29 1659.022,162.29L1773.498,162.29C1782.573,162.29 1790.833,162.756 1798.278,163.686C1803.63,164.384 1808.167,165.548 1811.89,167.177C1815.612,168.805 1819.335,170.899 1823.058,173.459C1826.781,176.018 1829.631,179.566 1831.609,184.104C1833.586,188.641 1834.575,195.679 1834.575,205.219C1834.575,214.758 1831.783,222.088 1826.199,227.207C1822.942,229.999 1818.986,232.733 1814.333,235.408C1809.679,238.084 1795.602,239.422 1772.102,239.422L1659.022,239.422C1644.829,239.422 1630.753,224.88 1630.753,211.152L1630.753,190.56ZM1655.429,210.624C1655.644,211.007 1656.465,212.431 1657.109,213.082C1657.735,213.715 1658.183,214.746 1659.022,214.746L1772.102,214.746C1786.165,214.746 1800.715,213.314 1803.755,212.998C1805.985,211.642 1807.962,210.277 1809.667,208.867C1810.371,208.022 1809.899,206.677 1809.899,205.219C1809.899,200.167 1810.035,196.367 1808.988,193.964C1808.96,193.9 1809.131,193.829 1809.078,193.793C1806.715,192.168 1804.363,190.818 1801.999,189.784C1800.133,188.968 1797.83,188.516 1795.095,188.157C1788.601,187.352 1781.402,186.967 1773.498,186.967L1659.022,186.967C1658.167,186.967 1657.646,187.912 1657.022,188.543C1656.385,189.187 1655.429,189.716 1655.429,190.56L1655.429,210.624ZM1500.33,617.377C1500.438,607.944 1502.623,591.9 1507.293,569.303C1510.466,553.955 1512.499,543.097 1513.073,536.676L1494.539,536.676C1493.379,545.221 1492.789,553.457 1492.789,561.385C1492.789,570.898 1494.979,587.072 1499.041,609.946C1499.493,612.495 1499.923,614.972 1500.33,617.377Z"/>
            </g>
            <g transform="matrix(0.665837,0,0,0.625338,-42.387529,7.002767)">
                <path d="M2404.162,568.54L2406.605,535.035C2406.605,529.218 2403.813,524.739 2398.229,521.598C2392.645,518.457 2386.595,516.886 2380.08,516.886C2373.566,516.886 2367.749,518.631 2362.63,522.121C2357.511,525.611 2354.952,530.614 2354.952,537.129L2354.952,617.401C2354.952,629.035 2357.395,646.137 2362.281,668.706C2367.167,691.276 2369.61,707.388 2369.61,717.044C2369.61,726.7 2367.516,734.669 2363.328,740.952C2359.14,747.234 2353.381,750.375 2346.052,750.375C2338.723,750.375 2333.197,747.117 2329.474,740.603C2325.751,734.088 2323.89,725.595 2323.89,715.125C2323.89,704.654 2326.565,686.506 2331.917,660.679C2337.268,634.852 2339.944,614.842 2339.944,600.649C2339.944,543.178 2329.241,514.443 2307.835,514.443C2278.983,514.443 2264.558,513.28 2264.558,510.953L2264.558,511.651C2264.558,527.706 2268.106,551.264 2275.202,582.326C2282.299,613.388 2285.847,635.666 2285.847,649.162C2285.847,662.657 2283.404,673.767 2278.518,682.492C2273.632,691.217 2266.128,695.58 2256.007,695.58C2245.885,695.58 2237.975,691.392 2232.274,683.016C2226.574,674.639 2223.723,663.762 2223.723,650.383C2223.723,637.004 2227.097,614.086 2233.845,581.628C2240.592,549.17 2243.966,524.564 2243.966,507.812C2188.822,490.361 2147.348,461.859 2119.543,422.304C2091.739,382.749 2077.836,333.888 2077.836,275.719C2077.836,155.194 2138.564,79.109 2260.02,47.466C2299.342,37.228 2340.002,32.109 2382,32.109C2423.998,32.109 2459.713,34.436 2489.147,39.089C2518.58,43.743 2547.082,51.945 2574.654,63.695C2602.226,75.445 2625.726,90.336 2645.155,108.368C2664.583,126.4 2680.114,149.668 2691.748,178.17C2703.382,206.673 2709.198,239.189 2709.198,275.719C2709.198,350.175 2688.258,407.82 2646.376,448.654C2604.495,489.489 2545.628,514.559 2469.776,523.866C2468.846,525.495 2468.38,528.055 2468.38,531.545L2470.125,550.74C2470.125,562.607 2466.868,568.54 2460.353,568.54C2453.838,568.54 2450.581,562.839 2450.581,551.438L2451.628,531.894C2451.628,524.913 2446.625,521.423 2436.62,521.423C2435.69,523.517 2435.224,527.473 2435.224,533.29L2436.969,567.144C2436.969,574.124 2435.69,580.872 2433.13,587.387C2430.571,593.901 2426.266,597.159 2420.217,597.159C2409.514,597.159 2404.162,587.619 2404.162,568.54ZM2272.236,276.068C2272.236,361.227 2312.721,403.806 2393.692,403.806C2474.663,403.806 2515.148,361.227 2515.148,276.068C2515.148,236.979 2504.678,207.08 2483.737,186.372C2462.796,165.664 2432.781,155.31 2393.692,155.31C2354.603,155.31 2324.588,165.664 2303.647,186.372C2282.706,207.08 2272.236,236.979 2272.236,276.068Z" style="fill:rgb(204,255,0);fill-rule:nonzero;"/>
                <path d="M2494.402,545.225L2494.7,548.506C2494.768,549.249 2494.802,549.994 2494.802,550.74C2494.802,582.7 2477.9,593.216 2460.353,593.216C2459.319,593.216 2458.307,593.177 2457.317,593.099C2456.936,594.207 2456.529,595.311 2456.098,596.409C2449.147,614.101 2436.644,621.835 2420.217,621.835C2399.442,621.835 2381.395,608.946 2379.628,574.253L2379.628,617.401C2379.628,627.857 2382.007,643.201 2386.398,663.485C2391.809,688.476 2394.286,706.352 2394.286,717.044C2394.286,732.285 2390.47,744.724 2383.86,754.64C2374.716,768.356 2362.054,775.051 2346.052,775.051C2329.288,775.051 2316.564,767.746 2308.049,752.845C2302.519,743.169 2299.213,730.677 2299.213,715.125C2299.213,709.555 2299.855,701.987 2301.189,692.427C2300.819,693.145 2300.438,693.852 2300.048,694.549C2290.479,711.637 2275.828,720.256 2256.007,720.256C2237.187,720.256 2222.474,712.474 2211.874,696.899C2203.72,684.918 2199.047,669.52 2199.047,650.383C2199.047,636.033 2202.448,611.419 2209.685,576.605C2213.966,556.014 2216.868,538.823 2218.286,525.019C2166.435,505.408 2126.922,475.711 2099.356,436.495C2068.837,393.079 2053.16,339.566 2053.16,275.719C2053.16,209.092 2070.525,154.928 2104.096,112.868C2137.438,71.096 2187.116,40.96 2253.799,23.587L2253.803,23.585C2295.13,12.826 2337.861,7.433 2382,7.433C2425.509,7.433 2462.507,9.895 2493,14.716C2524.437,19.686 2554.88,28.444 2584.329,40.994C2614.701,53.937 2640.54,70.418 2661.942,90.282C2683.836,110.603 2701.484,136.725 2714.594,168.845C2727.343,200.081 2733.875,235.687 2733.875,275.719C2733.875,357.925 2709.844,421.238 2663.603,466.323C2622.345,506.549 2566.084,533.177 2494.402,545.225ZM2268.561,512.753C2268.372,518.762 2267.85,525.578 2266.985,533.202L2286.048,514.139C2292.052,514.342 2299.315,514.443 2307.835,514.443C2329.241,514.443 2339.944,543.178 2339.944,600.649C2339.944,614.842 2337.268,634.852 2331.917,660.679C2326.565,686.506 2323.89,704.654 2323.89,715.125C2323.89,725.595 2325.751,734.088 2329.474,740.603C2333.197,747.117 2338.723,750.375 2346.052,750.375C2353.381,750.375 2359.14,747.234 2363.328,740.952C2367.516,734.669 2369.61,726.7 2369.61,717.044C2369.61,707.388 2367.167,691.276 2362.281,668.706C2357.395,646.137 2354.952,629.035 2354.952,617.401L2354.952,537.129C2354.952,530.614 2357.511,525.611 2362.63,522.121C2367.749,518.631 2373.566,516.886 2380.08,516.886C2386.595,516.886 2392.645,518.457 2398.229,521.598C2403.813,524.739 2406.605,529.218 2406.605,535.035L2404.162,568.54C2404.162,587.619 2409.514,597.159 2420.217,597.159C2426.266,597.159 2430.571,593.901 2433.13,587.387C2435.69,580.872 2436.969,574.124 2436.969,567.144L2435.224,533.29C2435.224,527.473 2435.69,523.517 2436.62,521.423C2446.625,521.423 2451.628,524.913 2451.628,531.894L2450.581,551.438C2450.581,562.839 2453.838,568.54 2460.353,568.54C2466.868,568.54 2470.125,562.607 2470.125,550.74L2468.38,531.545C2468.38,528.055 2468.846,525.495 2469.776,523.866C2545.628,514.559 2604.495,489.489 2646.376,448.654C2688.258,407.82 2709.198,350.175 2709.198,275.719C2709.198,239.189 2703.382,206.673 2691.748,178.17C2680.114,149.668 2664.583,126.4 2645.155,108.368C2625.726,90.336 2602.226,75.445 2574.654,63.695C2547.082,51.945 2518.58,43.743 2489.147,39.089C2459.713,34.436 2423.998,32.109 2382,32.109C2340.002,32.109 2299.342,37.228 2260.02,47.466C2138.564,79.109 2077.836,155.194 2077.836,275.719C2077.836,333.888 2091.739,382.749 2119.543,422.304C2147.348,461.859 2188.822,490.361 2243.966,507.812C2243.966,524.564 2240.592,549.17 2233.845,581.628C2227.097,614.086 2223.723,637.004 2223.723,650.383C2223.723,663.762 2226.574,674.639 2232.274,683.016C2237.975,691.392 2245.885,695.58 2256.007,695.58C2266.128,695.58 2273.632,691.217 2278.518,682.492C2283.404,673.767 2285.847,662.657 2285.847,649.162C2285.847,635.666 2282.299,613.388 2275.202,582.326C2268.106,551.264 2264.558,527.706 2264.558,511.651L2264.558,510.953C2264.558,511.661 2265.892,512.261 2268.561,512.753ZM2272.236,276.068C2272.236,236.979 2282.706,207.08 2303.647,186.372C2324.588,165.664 2354.603,155.31 2393.692,155.31C2432.781,155.31 2462.796,165.664 2483.737,186.372C2504.678,207.08 2515.148,236.979 2515.148,276.068C2515.148,361.227 2474.663,403.806 2393.692,403.806C2312.721,403.806 2272.236,361.227 2272.236,276.068ZM2296.912,276.068C2296.912,310.915 2303.916,337.445 2320.483,354.868C2336.656,371.879 2361.344,379.13 2393.692,379.13C2426.039,379.13 2450.727,371.879 2466.901,354.868C2483.468,337.445 2490.472,310.915 2490.472,276.068C2490.472,244.782 2483.146,220.492 2466.386,203.918C2449.561,187.28 2425.099,179.986 2393.692,179.986C2362.285,179.986 2337.823,187.28 2320.998,203.918C2304.238,220.492 2296.912,244.782 2296.912,276.068ZM2310.321,642.639C2313.565,625.157 2315.268,611.168 2315.268,600.649C2315.268,580.145 2313.913,563.726 2310.858,551.424C2309.676,546.665 2306.993,541.215 2305.908,539.117C2300.774,539.105 2296.063,539.046 2291.775,538.945C2293.463,549.829 2295.975,562.455 2299.259,576.83C2305.885,605.834 2309.466,627.787 2310.321,642.639ZM2379.628,565.697L2381.383,541.624C2380.955,541.583 2380.521,541.562 2380.08,541.562C2379.928,541.562 2379.777,541.566 2379.628,541.573L2379.628,565.697Z"/>
            </g>
            <g transform="matrix(0.665837,0,0,0.625338,-42.387529,7.002767)">
                <path d="M2917.062,620.194L2925.438,525.611C2925.438,518.166 2921.25,512 2912.874,507.114C2899.146,499.436 2897.199,495.596 2877.422,495.596C2850.897,495.596 2841.516,500.832 2831.511,511.302C2827.09,515.955 2824.879,522.761 2824.879,531.719C2824.879,540.677 2824.594,556.324 2829.945,578.661C2835.297,600.998 2832.05,616.762 2832.05,625.952C2832.05,635.143 2830.364,642.472 2826.99,647.94C2823.616,653.408 2818.672,656.142 2812.157,656.142C2805.642,656.142 2800.639,653.408 2797.149,647.94C2793.659,642.472 2791.914,635.085 2791.914,625.778C2791.914,616.471 2794.764,600.416 2800.465,577.614C2806.165,554.812 2809.016,537.594 2809.016,525.96L2808.667,98.072C2808.667,70.617 2832.632,47.117 2859.622,47.117L2963.977,47.117C2978.868,47.117 2990.908,46.345 3001.845,47.117C3013.679,47.952 3021.839,56.825 3029.242,66.661C3035.538,75.027 3047.623,103.424 3084.386,145.538C3132.317,200.449 3163.146,237.328 3176.874,256.175C3190.602,275.021 3207.587,261.526 3207.587,231.046C3207.587,216.853 3209.332,195.621 3212.822,167.351C3216.312,139.081 3218.057,117.85 3218.057,103.656C3218.057,65.498 3230.854,47.117 3257.845,47.117L3329.392,47.117C3356.382,47.117 3380.348,70.849 3380.348,98.072L3379.65,524.215C3379.65,534.22 3381.976,549.17 3386.63,569.063C3391.283,588.957 3393.61,603.906 3393.61,613.911C3393.61,628.803 3387.91,636.248 3376.509,636.248C3365.107,636.248 3359.407,628.803 3359.407,613.911C3359.407,604.139 3361.617,589.771 3366.038,570.808C3370.459,551.845 3372.669,538.816 3372.669,531.719C3372.669,524.623 3370.343,519.562 3365.689,516.537C3361.036,513.512 3356.499,512 3352.078,512L3214.218,512C3194.673,512 3184.901,529.8 3184.901,565.399C3184.901,580.057 3187.635,601.289 3193.103,629.093C3198.571,656.898 3201.305,677.897 3201.305,692.09C3201.305,712.333 3193.743,722.454 3178.619,722.454C3163.495,722.454 3155.933,712.216 3155.933,691.741C3155.933,678.711 3158.9,659.748 3164.833,634.852C3170.766,609.956 3173.849,591.226 3174.082,578.661L3174.78,532.243C3175.478,510.604 3173.267,496.527 3168.149,490.012L3000.972,278.162C2996.551,272.345 2983.172,269.088 2983.172,284.444L2983.172,483.73L2989.804,660.33C2989.804,664.053 2988.698,667.252 2986.488,669.928C2984.278,672.603 2981.253,673.941 2977.414,673.941C2973.575,673.941 2970.375,672.371 2967.816,669.23C2965.257,666.089 2963.977,662.54 2963.977,658.585L2960.762,524.564C2960.762,521.772 2959.715,519.213 2957.621,516.886C2955.527,514.559 2953.084,513.396 2950.292,513.396C2944.242,513.396 2941.217,518.05 2941.217,527.357C2941.217,536.663 2942.788,551.904 2945.929,573.077C2949.07,594.25 2950.641,608.793 2950.641,616.703C2950.641,634.387 2946.278,643.228 2937.553,643.228C2928.828,643.228 2917.062,635.55 2917.062,620.194Z" style="fill:rgb(204,255,0);fill-rule:nonzero;"/>
                <path d="M3183.034,223.753C3183.491,209.246 3185.232,189.435 3188.332,164.328C3191.657,137.397 3193.381,117.177 3193.381,103.656C3193.381,71.787 3202.021,50.529 3215.266,38.061C3225.856,28.093 3239.822,22.44 3257.845,22.44L3329.392,22.44C3369.453,22.44 3405.024,57.666 3405.024,98.072L3405.024,98.113L3404.326,524.224C3404.327,532.983 3406.585,546.033 3410.657,563.443C3415.891,585.815 3418.286,602.66 3418.286,613.911C3418.286,632.07 3412,644.021 3403.658,651.284C3396.811,657.246 3387.92,660.924 3376.509,660.924C3365.097,660.924 3356.206,657.246 3349.359,651.284C3341.017,644.021 3334.731,632.07 3334.731,613.911C3334.731,602.876 3337.014,586.62 3342.006,565.206C3344.934,552.649 3346.909,543.155 3347.658,536.676L3214.218,536.676C3213.429,536.676 3213.582,537.715 3213.235,538.52C3212.559,540.087 3212.021,541.859 3211.56,543.817C3210.167,549.739 3209.577,556.939 3209.577,565.399C3209.577,578.966 3212.255,598.598 3217.315,624.332C3223.195,654.229 3225.981,676.829 3225.981,692.09C3225.981,713.353 3219.098,727.503 3209.567,736.008C3201.77,742.965 3191.613,747.13 3178.619,747.13C3165.581,747.13 3155.389,742.919 3147.567,735.858C3138.103,727.317 3131.257,713.094 3131.257,691.741C3131.257,677.409 3134.303,656.516 3140.829,629.132C3146.204,606.576 3149.193,589.633 3149.409,578.238L3150.106,531.872L3150.116,531.447C3150.496,519.687 3148.368,506.084 3148.103,504.444L3007.849,326.71L3007.849,483.267L3014.463,659.404C3014.474,659.713 3014.48,660.021 3014.48,660.33C3014.48,670.176 3011.358,678.567 3005.512,685.644C2998.618,693.99 2989.389,698.618 2977.414,698.618C2965.97,698.618 2956.315,694.18 2948.686,684.817C2944.439,679.605 2941.654,673.927 2940.289,667.81C2939.378,667.873 2938.465,667.905 2937.553,667.905C2918.959,667.905 2892.386,652.919 2892.386,620.194C2892.386,619.467 2892.418,618.741 2892.482,618.017L2900.417,528.418C2891.638,523.431 2890.412,520.273 2877.422,520.273C2862.038,520.273 2855.831,521.92 2849.997,527.692C2849.87,528.427 2849.556,530.386 2849.556,531.719C2849.556,539.579 2849.247,553.314 2853.943,572.912C2859.947,597.974 2856.727,615.64 2856.727,625.952C2856.727,640.625 2853.376,652.168 2847.99,660.898C2839.83,674.123 2827.915,680.818 2812.157,680.818C2796.607,680.818 2784.68,674.268 2776.349,661.217C2770.741,652.431 2767.238,640.733 2767.238,625.778C2767.238,615.325 2770.123,597.239 2776.525,571.629C2781.569,551.454 2784.339,536.26 2784.339,525.965L2783.99,98.092L2783.99,98.072C2783.99,57.321 2819.562,22.44 2859.622,22.44L2963.977,22.44C2979.551,22.44 2992.143,21.694 3003.582,22.502C3022.58,23.842 3037.074,36.033 3048.958,51.822C3055.138,60.033 3066.894,87.977 3102.976,129.311C3139.404,171.044 3166.079,202.533 3183.034,223.753ZM2917.062,620.194C2917.062,635.55 2928.828,643.228 2937.553,643.228C2946.278,643.228 2950.641,634.387 2950.641,616.703C2950.641,608.793 2949.07,594.25 2945.929,573.077C2942.788,551.904 2941.217,536.663 2941.217,527.357C2941.217,518.05 2944.242,513.396 2950.292,513.396C2953.084,513.396 2955.527,514.559 2957.621,516.886C2959.715,519.213 2960.762,521.772 2960.762,524.564L2963.977,658.585C2963.977,662.54 2965.257,666.089 2967.816,669.23C2970.375,672.371 2973.575,673.941 2977.414,673.941C2981.253,673.941 2984.278,672.603 2986.488,669.928C2988.698,667.252 2989.804,664.053 2989.804,660.33L2983.172,483.73L2983.172,284.444C2983.172,269.088 2996.551,272.345 3000.972,278.162L3168.149,490.012C3173.267,496.527 3175.478,510.604 3174.78,532.243L3174.082,578.661C3173.849,591.226 3170.766,609.956 3164.833,634.852C3158.9,659.748 3155.933,678.711 3155.933,691.741C3155.933,712.216 3163.495,722.454 3178.619,722.454C3193.743,722.454 3201.305,712.333 3201.305,692.09C3201.305,677.897 3198.571,656.898 3193.103,629.093C3187.635,601.289 3184.901,580.057 3184.901,565.399C3184.901,529.8 3194.673,512 3214.218,512L3352.078,512C3356.499,512 3361.036,513.512 3365.689,516.537C3370.343,519.562 3372.669,524.623 3372.669,531.719C3372.669,538.816 3370.459,551.845 3366.038,570.808C3361.617,589.771 3359.407,604.139 3359.407,613.911C3359.407,628.803 3365.107,636.248 3376.509,636.248C3387.91,636.248 3393.61,628.803 3393.61,613.911C3393.61,603.906 3391.283,588.957 3386.63,569.063C3381.976,549.17 3379.65,534.22 3379.65,524.215L3380.348,98.072C3380.348,70.849 3356.382,47.117 3329.392,47.117L3257.845,47.117C3230.854,47.117 3218.057,65.498 3218.057,103.656C3218.057,117.85 3216.312,139.081 3212.822,167.351C3209.332,195.621 3207.587,216.853 3207.587,231.046C3207.587,261.526 3190.602,275.021 3176.874,256.175C3163.146,237.328 3132.317,200.449 3084.386,145.538C3047.623,103.424 3035.538,75.027 3029.242,66.661C3021.839,56.825 3013.679,47.952 3001.845,47.117C2990.908,46.345 2978.868,47.117 2963.977,47.117L2859.622,47.117C2832.632,47.117 2808.667,70.617 2808.667,98.072L2809.016,525.96C2809.016,537.594 2806.165,554.812 2800.465,577.614C2794.764,600.416 2791.914,616.471 2791.914,625.778C2791.914,635.085 2793.659,642.472 2797.149,647.94C2800.639,653.408 2805.642,656.142 2812.157,656.142C2818.672,656.142 2823.616,653.408 2826.99,647.94C2830.364,642.472 2832.05,635.143 2832.05,625.952C2832.05,616.762 2835.297,600.998 2829.945,578.661C2824.594,556.324 2824.879,540.677 2824.879,531.719C2824.879,522.761 2827.09,515.955 2831.511,511.302C2841.516,500.832 2850.897,495.596 2877.422,495.596C2897.199,495.596 2899.146,499.436 2912.874,507.114C2921.25,512 2925.438,518.166 2925.438,525.611L2917.062,620.194Z"/>
            </g>
            <g transform="matrix(0.665837,0,0,0.625338,-42.387529,7.002767)">
                <path d="M3477.722,137.511L3479.467,92.837C3479.467,67.243 3492.264,46.419 3505.992,46.419L3964.244,46.419C3978.437,46.419 3992.863,60.263 3992.863,74.688L3991.118,119.362C3991.118,144.491 3971.69,163.337 3948.19,163.337L3871.058,168.224C3846.627,168.224 3824.639,179.625 3824.639,194.05L3824.639,483.73C3824.639,507.928 3826.792,543.993 3831.096,591.924C3835.401,639.855 3837.553,671.382 3837.553,686.506C3837.553,713.031 3832.783,726.293 3823.243,726.293C3813.704,726.293 3808.934,716.87 3808.934,698.023C3808.934,679.177 3810.504,653.641 3813.646,621.415C3816.787,589.19 3818.357,564.933 3818.357,548.646C3818.357,523.285 3813.355,510.604 3803.35,510.604C3798.464,510.604 3794.624,513.512 3791.832,519.329C3789.04,525.146 3787.644,530.847 3787.644,536.431L3795.671,609.374C3795.671,626.127 3790.902,634.503 3781.362,634.503C3776.476,634.503 3772.869,632.06 3770.543,627.174C3768.216,622.288 3767.052,616.587 3767.052,610.072C3767.052,603.557 3769.147,592.913 3773.335,578.138C3777.523,563.363 3779.617,551.322 3779.617,542.015C3779.617,532.708 3775.603,525.611 3767.576,520.725C3759.549,515.839 3749.427,513.396 3737.212,513.396C3724.997,513.396 3712.316,515.839 3699.17,520.725C3686.024,525.611 3678.89,533.232 3668.885,543.586C3658.88,553.94 3653.877,564.177 3653.877,574.299C3653.877,584.42 3655.448,596.693 3658.589,611.119C3661.73,625.545 3661.82,637.586 3661.82,647.242C3661.82,656.898 3654.554,661.726 3645.945,661.726C3636.173,661.726 3631.287,656.549 3631.287,646.195C3631.287,635.841 3633.148,622.753 3636.871,606.931C3640.594,591.109 3642.455,579.243 3642.455,571.332L3642.455,480.589C3642.921,353.083 3643.153,257.571 3643.153,194.05C3643.153,179.392 3622.213,167.875 3598.48,167.875L3523.442,163.337C3499.477,163.337 3477.722,151.704 3477.722,137.511ZM3778.57,687.204C3784.154,712.798 3786.946,735.018 3786.946,753.865C3786.946,762.009 3784.038,766.08 3778.221,766.08C3772.404,766.08 3769.496,762.358 3769.496,754.912C3769.496,733.971 3772.52,711.402 3778.57,687.204Z" style="fill:rgb(204,255,0);fill-rule:nonzero;"/>
                <path d="M3849.316,198.579L3849.316,483.73C3849.316,507.435 3851.457,542.762 3855.673,589.716C3860.078,638.764 3862.229,671.03 3862.229,686.506C3862.229,708.089 3858.776,723.01 3854.119,731.643C3846.642,745.503 3835.705,750.969 3823.243,750.969C3819.279,750.969 3815.339,750.414 3811.573,749.213C3811.606,750.784 3811.622,752.335 3811.622,753.865C3811.622,767.687 3806.566,776.637 3800.642,782.166C3794.976,787.454 3787.664,790.757 3778.221,790.757C3769.121,790.757 3762.079,787.724 3756.619,783.064C3750.158,777.551 3744.819,768.696 3744.819,754.912C3744.819,732.123 3748.047,707.553 3754.63,681.219C3757.41,670.099 3767.481,662.358 3778.942,662.53C3781.195,662.564 3783.385,662.902 3785.468,663.509C3785.559,662.02 3785.656,660.509 3785.757,658.977C3784.309,659.113 3782.843,659.179 3781.362,659.179C3766.626,659.179 3755.281,652.519 3748.263,637.783C3744.487,629.852 3742.376,620.646 3742.376,610.072C3742.376,602.199 3744.533,589.263 3749.594,571.408C3753.006,559.369 3754.941,549.599 3754.941,542.015C3754.941,541.906 3754.84,541.861 3754.746,541.804C3750.139,539 3744.222,538.072 3737.212,538.072C3727.75,538.072 3717.949,540.071 3707.767,543.855C3698.396,547.339 3693.762,553.352 3686.63,560.733C3682.009,565.515 3678.554,569.624 3678.554,574.299C3678.554,582.981 3680.006,593.495 3682.7,605.869C3686.299,622.395 3686.496,636.18 3686.496,647.242C3686.496,672.573 3668.529,686.402 3645.945,686.402C3632.876,686.402 3623.541,681.704 3617.006,674.781C3610.921,668.333 3606.611,659.091 3606.611,646.195C3606.611,634.356 3608.594,619.37 3612.851,601.279C3615.986,587.953 3617.779,577.995 3617.779,571.332L3617.779,480.589L3617.779,480.499C3618.235,355.624 3618.468,261.445 3618.477,197.962C3615.091,196.466 3605.555,192.551 3598.48,192.551C3597.983,192.551 3597.486,192.536 3596.991,192.506L3522.664,188.01C3498.579,187.809 3476.583,178.301 3465.212,166.38C3457.04,157.812 3453.046,147.78 3453.046,137.511C3453.046,137.189 3453.052,136.868 3453.064,136.547L3454.792,92.359C3454.919,66.516 3465.328,44.563 3477.57,33.385C3486.23,25.477 3496.167,21.742 3505.992,21.742L3964.244,21.742C3977.495,21.742 3991.086,27.676 4001.133,37.505C4011.298,47.451 4017.539,61.061 4017.539,74.688C4017.539,75.01 4017.533,75.331 4017.52,75.652L4015.792,119.877C4015.528,158.71 3985.347,187.563 3949.056,188.008L3872.618,192.85C3872.099,192.883 3871.578,192.9 3871.058,192.9C3863.444,192.9 3853.135,196.957 3849.316,198.579ZM3477.722,137.511C3477.722,151.704 3499.477,163.337 3523.442,163.337L3598.48,167.875C3622.213,167.875 3643.153,179.392 3643.153,194.05C3643.153,257.571 3642.921,353.083 3642.455,480.589L3642.455,571.332C3642.455,579.243 3640.594,591.109 3636.871,606.931C3633.148,622.753 3631.287,635.841 3631.287,646.195C3631.287,656.549 3636.173,661.726 3645.945,661.726C3654.554,661.726 3661.82,656.898 3661.82,647.242C3661.82,637.586 3661.73,625.545 3658.589,611.119C3655.448,596.693 3653.877,584.42 3653.877,574.299C3653.877,564.177 3658.88,553.94 3668.885,543.586C3678.89,533.232 3686.024,525.611 3699.17,520.725C3712.316,515.839 3724.997,513.396 3737.212,513.396C3749.427,513.396 3759.549,515.839 3767.576,520.725C3775.603,525.611 3779.617,532.708 3779.617,542.015C3779.617,551.322 3777.523,563.363 3773.335,578.138C3769.147,592.913 3767.052,603.557 3767.052,610.072C3767.052,616.587 3768.216,622.288 3770.543,627.174C3772.869,632.06 3776.476,634.503 3781.362,634.503C3790.902,634.503 3795.671,626.127 3795.671,609.374L3787.644,536.431C3787.644,530.847 3789.04,525.146 3791.832,519.329C3794.624,513.512 3798.464,510.604 3803.35,510.604C3813.355,510.604 3818.357,523.285 3818.357,548.646C3818.357,564.933 3816.787,589.19 3813.646,621.415C3810.504,653.641 3808.934,679.177 3808.934,698.023C3808.934,716.87 3813.704,726.293 3823.243,726.293C3832.783,726.293 3837.553,713.031 3837.553,686.506C3837.553,671.382 3835.401,639.855 3831.096,591.924C3826.792,543.993 3824.639,507.928 3824.639,483.73L3824.639,194.05C3824.639,179.625 3846.627,168.224 3871.058,168.224L3948.19,163.337C3971.69,163.337 3991.118,144.491 3991.118,119.362L3992.863,74.688C3992.863,60.263 3978.437,46.419 3964.244,46.419L3505.992,46.419C3492.264,46.419 3479.467,67.243 3479.467,92.837L3477.722,137.511ZM3778.57,687.204C3772.52,711.402 3769.496,733.971 3769.496,754.912C3769.496,762.358 3772.404,766.08 3778.221,766.08C3784.038,766.08 3786.946,762.009 3786.946,753.865C3786.946,735.018 3784.154,712.798 3778.57,687.204Z"/>
            </g>
        </g>
    </g>
</svg>
